<svg version="1.2" xmlns="http://www.w3.org/2000/svg" viewBox="0 0 1547 328" width="1547" height="328">
	<title>logo-large</title>
	<style>
		.s0 { fill: #0033a0 } 
	</style>
	<g id="Layer">
		<path id="Layer" fill-rule="evenodd" class="s0" d="m1521.2 322.5c-13.9 0-25.1-11.9-25.1-26.6 0-14.7 11.2-26.6 25.1-26.6 13.8 0 25 11.9 25 26.6 0 14.7-11.2 26.6-25 26.6zm21.5-26.6c0-12.9-9.6-23.4-21.5-23.4-11.9 0-21.5 10.5-21.5 23.4 0 13 9.6 23.5 21.5 23.5 11.9 0 21.5-10.5 21.5-23.5zm-14.1 14.3l-8.5-12.6h-2.8v12.1h-4.9v-29.4h8.6c6 0 10 3.1 10 8.6 0 4.2-2.2 7-5.8 8.1l8.2 12zm-7.5-25.2h-3.7v8.6h3.5c3.2 0 5.2-1.3 5.2-4.3 0-2.9-1.8-4.3-5-4.3zm-1232.2-284.1v321.7h-62.4l-0.1-82.9h-110.9c-1.6 2.8-49.3 82.8-49.3 82.8h-65.7l193.3-321.5c0-0.1 95.1-0.1 95.1-0.1zm-62.6 53.8c0 0-71.5 120.3-76.2 128.1h76.2c0 0 0-128.1 0-128.1zm167.4-53.7v321.6h-60.6v-321.7zm44.1 0h60.6v321.7h-60.6zm275.7 250.3c0.3 21.3-5.6 38.4-17.7 51.1-15.4 16.2-40.4 24.4-74.3 24.4-34.9 0-68-11.5-87.4-22.6l-1.8-1 8.4-53.9 3.7 2.5c24.9 16.9 53.5 26.6 79 26.6 24.3 0 33.5-6 33.7-21.9 0.2-17.6-7-23.1-42.8-32.2-54.1-14.4-77-28.4-78-78-0.3-18.4 5.9-34.9 17.9-47.7 15.2-16 38.7-24.8 66.4-24.8 28.8 0 55.8 5.7 78.4 16.3l2 1-8.3 53.7-3.5-2.1c-22-12.8-47.6-20.4-68.6-20.4-16.9 0-27.1 7.4-27.8 20.3-0.9 14.2 6 19.2 39 28.1 55 14.7 80.9 27.3 81.7 80.6zm155.1 70.9l-2.7 0.6c-8.9 2-19 3.9-35.4 3.9-50.8 0-75.5-23.9-75.5-72.7v-123.3h-31.1v-52.4h31.1v-77.3h59.7v77.3h45.2l-0.8 52.4h-44.4v113.8c0 18.2 8.3 26.5 26.3 26.5 7.2 0 12.5-0.6 16.6-1.7l3.2-0.9c0 0 7.8 53.8 7.8 53.8zm209.6-167v167.4h-52.4c0 0-3-19.8-4.2-26.9-21.1 21.2-44 31.6-71.5 31.6-39.9 0-65.5-26.5-65.5-67.5 0-55.5 43.6-87.1 133.1-96.6v-6.3c0-22.1-11.3-32.3-35.1-32.3-22.4 0-45.4 5.8-72.6 18.3l-3.4 1.5-7.8-51.6 2.2-0.9c22.6-9.1 51.1-18.6 88.8-18.6 60.3 0 88.4 26.1 88.4 81.9zm-60.5 100.1v-52.9c-47.8 6.6-73 24.3-73 51.3 0 15.2 9.2 24.7 24.2 24.7 17.1 0 34-8.1 48.8-23.1zm223.8 66.9l-2.6 0.6c-8.5 1.9-19 3.9-35.4 3.9-50.8 0-75.7-23.9-75.7-72.7v-123.3h-30.9v-52.4h30.9v-77.3h59.8v77.3h45.3l-0.8 52.4h-44.5v113.8c0 18.2 8.4 26.5 26.5 26.5 7 0 12.4-0.6 16.5-1.7l3.1-0.9zm203.8-75.4l7.4 51-1.5 1.1c-26.4 18.7-56.6 28.4-90 28.4-68.2 0-110.8-48.3-110.8-126.2 0-43.1 11.5-77.8 33.2-100.1 17.8-18.5 41.5-27.9 70.3-27.8 65.7 0.1 99 42.2 99 125l-0.7 16.7h-141.2c3.4 39.7 23.7 62.5 56.2 62.5 25.1 0 47.2-8.4 74.4-27.9zm-51.9-73.2c-1.2-25.9-9.5-55.1-40.9-55.1-23.2 0-38 20.1-40.7 55.1z"/>
	</g>
</svg>