<svg width="1885" height="506" viewBox="0 0 1885 506" fill="none" xmlns="http://www.w3.org/2000/svg">
<path d="M876.886 355C939.296 355 985 313.886 985 253C985 192.114 939.296 151 876.886 151H759V355H876.886ZM814.16 302.274V203.412H880.668C909.351 203.412 929.84 223.498 929.84 253C929.84 282.188 909.351 302.274 880.668 302.274H814.16Z" fill="black"/>
<path d="M1270 355L1165.38 166.065C1159.71 156.022 1151.52 151 1140.8 151H1128.2C1117.48 151 1109.29 156.022 1103.62 166.065L999 355H1059.82L1134.82 214.397L1169.79 279.991H1120.32L1097 323.615H1193.11L1210.13 355H1270Z" fill="black"/>
<path d="M1503.62 355C1517.1 355 1524 347.782 1524 333.972V151H1471.02V269.948L1374.79 166.065C1365.38 155.708 1358.49 151 1341.56 151H1328.39C1311.46 151 1303 158.846 1303 174.225V355H1356.29V224.126L1461.3 337.738C1471.96 349.665 1477.92 355 1492.65 355H1503.62Z" fill="black"/>
<path d="M1708.97 355V203.412H1784V151H1579V203.412H1654.03V355H1708.97Z" fill="black"/>
<path d="M1885 355V151H1830V355H1885Z" fill="black"/>
<path d="M207.015 107.835L149 2H437.943L585 253.581L437.943 505H149L207.015 399.326H373.302L461.052 253.581L373.302 107.835H207.015Z" fill="black"/>
<path d="M-1.52588e-05 398.55L57.5897 506L206 254.53L59.2028 3.05176e-05L-1.52588e-05 106.645L83.7228 254.53L-1.52588e-05 398.55Z" fill="black"/>
</svg>
