<svg width="150" height="28" viewBox="0 0 150 28" fill="none" xmlns="http://www.w3.org/2000/svg">
<path d="M147.559 23.8316C148.581 22.5067 149.101 20.9027 149.101 19.0641C149.101 17.5349 148.773 16.297 148.126 15.3827C147.498 14.4402 146.64 13.7039 145.572 13.1962C144.518 12.6824 143.295 12.292 141.937 12.0351C140.596 11.7762 139.201 11.5679 137.791 11.4142C136.91 11.2827 136.046 11.1532 135.194 11.0238C134.363 10.868 133.592 10.6698 132.903 10.4352C132.23 10.1965 131.679 9.87489 131.268 9.47642C130.87 9.0658 130.669 8.54394 130.669 7.92297C130.669 7.21907 130.944 6.63046 131.487 6.16928C132.017 5.72024 132.75 5.38447 133.66 5.1741C134.561 4.93947 135.585 4.82013 136.702 4.82013C137.819 4.82013 138.877 4.9516 139.922 5.21253C140.966 5.47346 141.966 5.85576 142.893 6.35132C143.805 6.80036 144.621 7.36875 145.315 8.03827L148.006 4.1142C147.292 3.31927 146.4 2.61335 145.351 2.0126C144.275 1.3714 143.018 0.875835 141.614 0.542087C140.207 0.182044 138.624 0 136.914 0C135.204 0 133.717 0.196203 132.288 0.580519C130.884 0.938539 129.629 1.48467 128.552 2.20274C127.482 2.91878 126.632 3.81079 126.027 4.85654C125.448 5.90026 125.153 7.10175 125.153 8.42865C125.153 9.62812 125.4 10.7123 125.887 11.6529C126.375 12.5671 127.091 13.356 128.02 13.9911C128.955 14.6323 130.093 15.1643 131.402 15.5749C132.715 15.9875 134.203 16.299 135.824 16.5053C136.483 16.5579 137.178 16.6227 137.882 16.6995C138.59 16.7764 139.286 16.8816 139.95 17.013C140.64 17.1445 141.255 17.3165 141.779 17.5248C142.334 17.7372 142.777 18.0204 143.095 18.3683C143.419 18.6959 143.583 19.1389 143.583 19.683C143.583 20.569 143.247 21.2769 142.585 21.7887C141.962 22.2883 141.16 22.6605 140.203 22.8971C137.465 23.512 134.595 23.2167 131.796 22.1143C129.979 21.3983 128.15 20.2534 126.357 18.7101L123.829 23.243C124.892 24.1977 126.084 25.0392 127.373 25.7451C128.684 26.4652 130.157 27.0255 131.752 27.4098C133.369 27.7961 135.154 27.9923 137.056 27.9923C139.424 27.9923 141.524 27.6283 143.305 26.9082C145.102 26.1921 146.535 25.1545 147.561 23.8235L147.559 23.8316Z" fill="white"/>
<path d="M81.7622 0.360256V11.2849H67.5881V0.360256H61.9258V27.6669H67.5881V16.7463H81.7622V27.6669H87.4246V0.360256H81.7622Z" fill="white"/>
<path d="M56.4617 0.360256H30.9629V5.82158H40.8811V27.6669H46.5435V5.82158H56.4617V0.360256Z" fill="white"/>
<path opacity="0.7" d="M21.8561 11.2827H0V16.7501H21.8561V11.2827Z" fill="white"/>
<path d="M25.4988 0.360596H0V5.82192H25.4988V0.360596Z" fill="white"/>
<path opacity="0.45" d="M25.4988 22.2057H0V27.667H25.4988V22.2057Z" fill="white"/>
<path d="M106.67 0.0177765C98.901 0.0177765 92.585 6.29021 92.585 14.0089C92.585 21.7276 98.907 28 106.67 28C114.433 28 120.755 21.7276 120.755 14.0089C120.755 6.29021 114.439 0.0177765 106.67 0.0177765ZM106.67 22.6722C101.862 22.6722 97.9478 18.7865 97.9478 14.0089C97.9478 9.23124 101.86 5.34561 106.67 5.34561C111.48 5.34561 115.392 9.23124 115.392 14.0089C115.392 18.7865 111.48 22.6722 106.67 22.6722Z" fill="white"/>
</svg>
