<?xml version="1.0" encoding="utf-8"?>
<!-- Generator: Adobe Illustrator 26.3.1, SVG Export Plug-In . SVG Version: 6.00 Build 0)  -->
<svg version="1.1" id="Layer_1" xmlns="http://www.w3.org/2000/svg" xmlns:xlink="http://www.w3.org/1999/xlink" x="0px" y="0px"
	 viewBox="0 0 634 151" style="enable-background:new 0 0 634 151;" xml:space="preserve">
<style type="text/css">
	.st0{fill-rule:evenodd;clip-rule:evenodd;fill:#F9A31E;}
	.st1{fill-rule:evenodd;clip-rule:evenodd;fill:#666666;}
</style>
<g id="Page-1">
	<g id="Group-6" transform="translate(3.000000, 0.000000)">
		<g id="Clip-2">
		</g>
		<polyline id="Fill-1" class="st0" points="0.1,56.1 0.2,148.5 17.7,148.5 17.7,56.1 0.1,56.1 		"/>
		<polyline id="Fill-3" class="st1" points="46.9,0.9 46.9,148.5 64.6,148.5 64.6,0.9 46.9,0.9 		"/>
		<polygon id="Fill-4" class="st1" points="94.7,148.5 112.4,148.5 112.4,0.9 94.7,0.9 		"/>
		<path id="Fill-5" class="st1" d="M219.3,148.5h-17.6v-14.2h-0.4c-10.9,23.8-64,25.9-64-18.7l-0.1-59.5h17.6v54.6
			c0,17.4,10,23.8,21.1,23.8c14.6,0,25.8-9.4,25.7-30.8V56.1h17.6L219.3,148.5"/>
	</g>
	<path id="Fill-7" class="st1" d="M244.9,56.1h16.4v14.4h0.4c1.8-5.5,13.1-16.8,29.7-16.8c13.7,0,23,5.9,28.9,17.2
		c6.1-11.3,18.2-17.2,29.3-17.2c28.5,0,35.1,20.3,35.2,41v53.9h-17.6V97.1c0-14.1-3-26.9-19.9-26.9c-17,0-23.6,11.5-23.6,27.9v50.5
		H306v-48.4c0-17.6-2.6-30-19.5-30c-12.7,0-24,9.6-24,30.4v48h-17.6V56.1"/>
	<polygon id="Fill-8" class="st1" points="408.6,148.5 426.2,148.5 426.2,56.1 408.6,56.1 	"/>
	<path id="Fill-9" class="st1" d="M452.1,56.1h17.6v14.2h0.4c10.9-23.8,64-25.9,64,18.7v59.5h-17.6V93.9c0-17.4-10-23.8-21.1-23.8
		c-14.6,0-25.8,9.4-25.7,30.8v47.6h-17.6L452.1,56.1"/>
	<g id="Group-13" transform="translate(0.000000, 12.000000)">
		<g id="Clip-11">
		</g>
		<path id="Fill-10" class="st1" d="M567.6,66.3c6.4-4.9,12.9-10.5,26.3-10.5c15,0,22.1,9.9,22.1,19.5v3.9c-17.6,0-63.8-2.5-63.8,32
			c0,18,14.8,27.7,32,27.7c14,0,24.6-4.5,32.4-16.4h0.4c0,4.7,0.2,9.4,0.6,14.1h15.6c-1.3-10.7-0.8-65-0.8-64
			c0-35.6-51.9-39.2-75.3-17.2L567.6,66.3z M616.1,92.1V98c0,12.5-6.8,26.9-26.3,26.9c-12.1,0-19.9-4.5-19.9-15
			C569.8,91.3,600.3,92.1,616.1,92.1L616.1,92.1z"/>
		<path id="Fill-12" class="st0" d="M11.8,0C5.3,0,0,5.3,0,11.8s5.3,11.8,11.8,11.8s11.8-5.3,11.8-11.8S18.3,0,11.8,0"/>
	</g>
</g>
</svg>
