<?xml version="1.0" encoding="UTF-8" standalone="no"?>
<svg
   xmlns:dc="http://purl.org/dc/elements/1.1/"
   xmlns:cc="http://creativecommons.org/ns#"
   xmlns:rdf="http://www.w3.org/1999/02/22-rdf-syntax-ns#"
   xmlns:svg="http://www.w3.org/2000/svg"
   xmlns="http://www.w3.org/2000/svg"
   viewBox="0 0 1245.04 156.12"
   height="156.12"
   width="1245.04"
   xml:space="preserve"
   id="svg2"
   version="1.1"><metadata
     id="metadata8"><rdf:RDF><cc:Work
         rdf:about=""><dc:format>image/svg+xml</dc:format><dc:type
           rdf:resource="http://purl.org/dc/dcmitype/StillImage" /></cc:Work></rdf:RDF></metadata><defs
     id="defs6" /><g
     transform="matrix(1.3333333,0,0,-1.3333333,0,156.12)"
     id="g10"><g
       transform="scale(0.1)"
       id="g12"><path
         id="path14"
         style="fill:#231f20;fill-opacity:1;fill-rule:nonzero;stroke:none"
         d="m 2821.92,589.613 h -202.63 v 387.004 h 202.63 c 98,0 176.06,-86.371 176.06,-192.668 0,-107.961 -78.06,-194.336 -176.06,-194.336 z m 146.16,-141.179 3.32,1.66 c 18.28,8.324 36.55,19.941 51.5,31.562 91.35,68.106 146.15,179.383 146.15,300.633 0,199.309 -147.81,362.081 -328.85,362.081 H 2448.21 V 31.5391 h 169.42 V 421.852 h 3.32 c 0,0 91.35,0 159.45,0 h 1.66 l 1.66,-1.661 257.44,-388.6519 h 202.63 z m 759.05,-259.098 h -102.98 v 792.262 h 102.98 c 182.7,0 320.56,-177.723 320.56,-396.965 0,-217.586 -137.86,-395.297 -320.56,-395.297 z m 4.98,953.374 H 3456.4 V 29.8789 h 275.71 c 269.07,0 481.67,249.1411 481.67,556.4141 0,305.613 -214.26,556.417 -481.67,556.417 z M 6419.49,589.613 h -202.62 v 387.004 h 202.62 c 98,0 176.07,-86.371 176.07,-192.668 0,-107.961 -78.07,-194.336 -176.07,-194.336 z m 146.17,-141.179 3.32,1.66 c 18.27,8.324 36.54,19.941 51.49,31.562 91.35,68.106 146.16,179.383 146.16,300.633 0,199.309 -147.82,362.081 -328.87,362.081 H 6045.79 V 31.5391 h 169.42 V 421.852 h 3.32 c 0,0 91.34,0 159.44,0 h 1.67 l 1.66,-1.661 257.45,-388.6519 h 204.29 z M 5823.22,1142.71 H 5112.34 V 986.582 h 267.42 V 29.8789 h 176.05 V 986.582 h 267.41 z M 835.449,0 V 1142.71 H 666.035 V 433.492 L 0,1165.96 V 29.8789 H 169.414 V 727.473 l 6.645,-6.641 z M 7537.3,169.41 c -229.21,0 -415.23,186.016 -415.23,415.223 0,229.211 186.02,415.234 415.23,415.234 229.21,0 415.24,-186.023 415.24,-415.234 0,-227.547 -186.03,-415.223 -415.24,-415.223 z m 0,1001.53 c -322.22,0 -584.64,-262.428 -584.64,-584.647 0,-322.211 262.42,-584.63284 584.64,-584.63284 322.23,0 584.65,262.42184 584.65,584.63284 0,322.219 -262.42,584.647 -584.65,584.647 z M 1642.66,169.41 c -229.21,0 -415.23,186.016 -415.23,415.223 0,229.211 186.02,415.234 415.23,415.234 229.21,0 415.24,-186.023 415.24,-415.234 1.66,-227.547 -186.03,-415.223 -415.24,-415.223 z m 0,1001.53 c -322.22,0 -584.65,-262.428 -584.65,-584.647 0,-322.211 262.43,-584.63284 584.65,-584.63284 322.22,0 584.65,262.42184 584.65,584.63284 1.66,322.219 -260.77,584.647 -584.65,584.647 z M 4967.85,323.863 c -3.33,58.145 -29.9,174.395 -181.04,295.653 l -132.88,116.269 c -56.48,44.844 -83.05,93.008 -84.71,149.481 0,64.777 43.18,109.621 107.97,112.941 1.66,0 83.03,9.973 132.86,-59.797 l 1.66,-3.32 134.54,91.35 -1.66,3.32 c -23.25,36.55 -127.89,136.2 -269.07,129.56 -79.73,-3.32 -151.14,-34.88 -200.97,-84.71 -51.49,-53.15 -76.41,-122.907 -71.42,-204.29 4.99,-94.683 59.79,-182.707 174.4,-275.718 l 124.56,-109.625 c 69.77,-56.465 99.67,-104.629 102.99,-161.114 3.32,-41.523 -11.63,-81.386 -38.21,-111.269 -23.25,-26.582 -49.83,-38.203 -86.36,-41.524 h -8.31 c -104.64,0 -147.82,74.746 -172.74,119.59 l -6.65,11.621 -144.49,-69.765 c 13.28,-36.543 91.35,-220.8949 320.56,-220.8949 h 3.32 c 83.04,4.9805 159.45,38.1992 214.26,94.6679 56.47,56.461 86.37,134.527 81.39,217.574 z M 8839.47,488.297 9337.75,1164.3 V 28.2188 H 9168.34 V 639.449 L 8837.81,199.293 8510.62,639.449 V 28.2188 H 8341.19 V 1165.96 l 498.28,-677.663" /></g></g></svg>