<svg width="250" height="47" viewBox="0 0 250 47" fill="none" xmlns="http://www.w3.org/2000/svg">
<path fill-rule="evenodd" clip-rule="evenodd" d="M96.3051 11.0605V27.9752L85.9379 11.0605H81.168V35.4234H85.5915V18.5437L95.9255 35.4234H100.694V11.0605H96.3051Z" fill="#021330"/>
<path fill-rule="evenodd" clip-rule="evenodd" d="M111.537 31.9111C108.703 31.9111 106.837 29.7881 106.837 26.655C106.837 23.5233 108.703 21.4003 111.537 21.4003C114.336 21.4003 116.237 23.5233 116.237 26.655C116.237 29.7881 114.336 31.9111 111.537 31.9111ZM111.539 17.6055C106.252 17.6055 102.449 21.4341 102.449 26.6538C102.449 31.8749 106.252 35.7036 111.539 35.7036C116.826 35.7036 120.628 31.8749 120.628 26.6538C120.628 21.4341 116.826 17.6055 111.539 17.6055Z" fill="#021330"/>
<path fill-rule="evenodd" clip-rule="evenodd" d="M132.351 17.912C131.629 17.947 130.906 18.0274 130.21 18.2294C128.691 18.6705 127.722 19.6519 127.096 21.0877V17.8855H122.742V35.4271H127.096V28.9883C127.096 28.9456 127.096 28.9044 127.097 28.8617C127.105 27.391 127.209 25.8139 127.84 24.4613C128.247 23.591 128.892 22.9626 129.701 22.4704C129.897 22.3509 130.096 22.2509 130.3 22.1671C130.867 21.9315 131.464 21.8147 132.088 21.726C132.797 21.6253 133.429 21.5736 134.254 21.575C134.255 21.575 134.251 17.8855 134.251 17.8855C134.251 17.8708 132.503 17.905 132.351 17.912Z" fill="#021330"/>
<path fill-rule="evenodd" clip-rule="evenodd" d="M142.901 12.7314H138.547V17.8827H135.609V21.5715H138.547V29.6817C138.547 33.7886 141.173 35.7025 144.699 35.7025C145.58 35.7025 146.404 35.5872 147.178 35.3481V31.4251C146.558 31.7348 145.801 31.8389 145.147 31.8389C143.8 31.8389 142.901 30.9344 142.901 29.2637V21.5715H147.29V17.8827H142.901V12.7314Z" fill="#021330"/>
<path fill-rule="evenodd" clip-rule="evenodd" d="M159.357 17.6149C156.938 17.6149 154.968 18.6935 153.827 20.6082V10.793H149.473V35.4348H153.827V27.8131C153.827 23.8447 155.348 21.5127 158.043 21.5127C160.186 21.5127 161.5 22.8709 161.5 25.0282V35.4348H165.854V23.9496C165.854 20.1209 163.262 17.6149 159.357 17.6149Z" fill="#021330"/>
<path fill-rule="evenodd" clip-rule="evenodd" d="M176.982 31.9209C174.183 31.9209 172.351 29.8329 172.351 26.6648C172.351 23.4982 174.183 21.4102 176.982 21.4102C179.747 21.4102 181.579 23.4982 181.579 26.6648C181.579 29.8329 179.747 31.9209 176.982 31.9209ZM177.678 17.6149C175.5 17.6149 173.634 18.5201 172.632 19.8427V10.793H168.277V35.4348H172.632V33.4166C173.496 34.8091 175.432 35.7137 177.608 35.7137C182.827 35.7137 185.903 32.0241 185.903 26.6639C185.903 21.3044 182.827 17.6149 177.678 17.6149Z" fill="#021330"/>
<path fill-rule="evenodd" clip-rule="evenodd" d="M191.539 24.6079C192.023 22.241 193.545 20.9534 195.687 20.9534C198.209 20.9534 199.558 22.5199 199.765 24.6079H191.539ZM195.688 17.6104C189.916 17.6104 187.082 22.1003 187.082 26.6601C187.082 31.2192 190.158 35.7091 195.929 35.7091C200.008 35.7091 203.049 33.7602 204.017 30.4531L199.939 29.3395C199.489 31.0452 198.038 32.0196 195.999 32.0196C193.511 32.0196 191.817 30.4531 191.438 27.8086H204.363C204.397 27.4605 204.431 26.6943 204.431 26.068C204.431 21.9961 201.563 17.6104 195.688 17.6104Z" fill="#021330"/>
<path fill-rule="evenodd" clip-rule="evenodd" d="M216.912 27.8428C216.912 30.4181 215.357 32.4719 212.661 32.4719C211.071 32.4719 210.104 31.5666 210.104 30.3489C210.104 29.0955 211.279 28.1211 213.595 27.8428L216.912 27.4598V27.8428ZM213.459 17.6104C209.762 17.6104 206.686 19.8382 206.133 23.3187L210.004 24.0142C210.211 22.1352 211.559 20.9525 213.459 20.9525C215.568 20.9525 216.915 22.1702 216.915 24.154V24.3281L213.667 24.6413C208.483 25.1984 205.891 27.0425 205.891 30.488C205.891 33.4813 208.276 35.7091 211.697 35.7091C213.84 35.7091 215.948 34.5956 216.915 32.8899V35.4309H221.132V24.7454C221.132 20.0815 218.022 17.6104 213.459 17.6104Z" fill="#021330"/>
<path fill-rule="evenodd" clip-rule="evenodd" d="M243.778 17.6143C241.013 17.6143 238.939 19.1458 238.006 20.9207C237.212 18.7977 235.346 17.6143 232.58 17.6143C230.162 17.6143 228.537 18.8327 227.569 20.5726V17.8925H223.215V35.4341H227.569V26.5242C227.569 23.4268 228.917 21.3387 231.301 21.3387C233.306 21.3387 234.412 22.6613 234.412 24.7493V35.4341H238.766V26.4892C238.766 23.3925 240.114 21.3387 242.464 21.3387C244.503 21.3387 245.644 22.6613 245.644 24.7493V35.4341H249.998V23.5316C249.998 20.0854 247.545 17.6143 243.778 17.6143Z" fill="#021330"/>
<path fill-rule="evenodd" clip-rule="evenodd" d="M74.666 0.822266H69.5225L56.3267 27.4383L51.5623 22.5926L62.3384 0.853385L62.2724 0.822266H57.1289L48.0848 19.0627L44.1623 15.075L51.2141 0.853385L51.1437 0.822266H46.0002L36.533 19.9208L30.2877 13.5724H27.4053L24.6286 19.1295L19.159 13.5724H16.2766L0 46.1767H5.23601L18.5067 19.6051L22.4117 23.5751L11.1243 46.1767H16.3603L25.8848 27.1049L30.6316 31.9329L23.518 46.1767H28.754L37.8508 27.9585L43.5276 33.7244H46.0442L49.3542 27.0515L55.9256 33.7289H58.4423L74.7365 0.857831L74.666 0.822266ZM31.9655 27.4368L28.1045 23.5114L30.0615 19.5947L33.9136 23.5069L31.9655 27.4368ZM40.0742 23.5114L43.9351 27.4368L45.8832 23.5069L42.0311 19.5947L40.0742 23.5114Z" fill="#7081FF"/>
</svg>
